Fly_normalized_Motion_pl09
version=1
nRows=8
nColumns=43
inDegrees=yes
endheader
time		pelvis_tilt		pelvis_list		pelvis_rotation		pelvis_tx		pelvis_ty		pelvis_tz		hip_flexion_r		hip_adduction_r		hip_rotation_r		knee_angle_r		ankle_angle_r		subtalar_angle_r		mtp_angle_r		hip_flexion_l		hip_adduction_l		hip_rotation_l		knee_angle_l		ankle_angle_l		subtalar_angle_l		mtp_angle_l		lumbar_extension		lumbar_bending		lumbar_rotation		neck_flexion		neck_lateral_bending		neck_rotation		arm_flex_r		arm_add_r		arm_rot_r		elbow_flex_r		pro_sup_r		wrist_flex_r		wrist_dev_r		hand_finger_flex_r		arm_flex_l		arm_add_l		arm_rot_l		elbow_flex_l		pro_sup_l		wrist_flex_l		wrist_dev_l		hand_finger_flex_l		
0.872500		-0.564837		-14.065576		90.215882		-0.011103		1.910218		1.483794		46.514437		-7.763608		3.528680		-107.119974		-15.514879		-4.106062		12.105434		49.328540		-2.023309		1.756416		-112.127000		-15.034885		-15.961928		13.575406		-45.426222		-1.582394		2.278358		20.454408		1.914183		-4.684446		135.216554		-10.888028		41.056577		50.968477		70.188456		-30.629638		-2.332391		26.186740		132.168987		-2.554799		25.602044		57.662102		108.525842		-26.984774		12.833297		63.505495		
0.876894		-0.492895		-13.839640		90.216877		-0.010918		1.910337		1.476690		46.761313		-7.632923		3.289946		-107.158667		-14.658849		-4.372698		12.205317		49.692122		-2.026094		1.530299		-112.446283		-14.266916		-16.438865		13.473706		-45.611217		-1.590748		2.315161		20.329615		1.951188		-4.705854		134.926272		-11.281043		41.402542		51.142228		70.463711		-30.541961		-2.395587		26.173078		131.578344		-2.639805		25.535612		57.823029		108.429802		-27.031470		12.512196		63.423215		
0.881288		-0.384308		-13.609805		90.226430		-0.010718		1.910402		1.469646		47.075329		-7.488515		3.046730		-107.160895		-14.150537		-4.791652		12.150170		50.093688		-2.067152		1.374333		-112.664456		-13.804451		-16.898124		13.253887		-45.828753		-1.562077		2.376815		20.225748		2.000830		-4.742737		134.565810		-11.632560		41.667489		51.347109		70.752454		-30.503405		-2.492094		26.140137		130.962859		-2.724778		25.410353		57.999606		108.304809		-27.085672		12.155800		63.351150		
0.885682		-0.063453		-13.563590		90.303397		-0.010469		1.909854		1.462950		47.677496		-7.142283		2.587582		-107.141967		-14.288854		-6.067814		11.492827		50.859944		-2.206147		1.429198		-112.929045		-13.914835		-17.875066		12.213411		-45.814401		-1.351958		2.701262		19.956398		1.911264		-4.883194		134.115948		-11.991883		41.873544		51.477590		71.515684		-30.599952		-2.690513		25.958726		130.219415		-2.605688		25.038717		57.880795		108.055477		-27.209865		11.237331		63.093913		
0.890076		0.008530		-13.223011		90.333546		-0.010420		1.909870		1.455867		47.988360		-7.062734		2.415967		-107.067559		-14.441088		-6.389369		11.287562		51.211975		-2.192837		1.307756		-112.988284		-14.068687		-18.047323		11.940699		-46.213307		-1.309180		2.633179		20.055482		1.978667		-4.893412		133.688492		-12.285617		41.964919		51.751204		71.668129		-30.524564		-2.772824		25.977694		129.584152		-2.890192		25.000438		58.258352		108.038967		-27.207726		11.054277		63.105031		
0.894470		0.125153		-13.014926		90.406266		-0.010455		1.909409		1.449169		48.536861		-6.950194		2.095848		-106.994748		-15.066932		-7.862444		10.579103		51.806644		-2.082500		1.253680		-113.014830		-14.725179		-19.108101		11.040606		-46.459638		-1.192508		2.673829		19.972476		1.862266		-4.881895		133.217899		-12.466612		41.920985		51.767701		72.268545		-30.608610		-2.981191		25.897463		128.901356		-2.934220		24.680929		58.255472		108.151572		-27.293460		10.738632		63.076694		
0.898864		0.176527		-12.681041		90.424776		-0.010584		1.909054		1.442289		48.932929		-6.910038		1.916730		-106.893113		-15.283025		-8.452037		10.263655		52.213728		-2.000385		1.122649		-112.965382		-15.118030		-19.501219		10.625232		-46.883177		-1.150300		2.654197		20.034570		1.837520		-4.869019		132.774684		-12.723158		41.967359		51.897545		72.567921		-30.598018		-3.092729		25.889949		128.263394		-3.159575		24.571377		58.437201		108.229557		-27.316711		10.586164		63.112554		
0.903258		0.174291		-12.353314		90.407305		-0.010696		1.908580		1.435524		49.384611		-6.891555		1.809485		-106.801006		-15.331423		-9.026456		9.231648		52.641277		-1.869029		0.888187		-112.825725		-15.670173		-20.210821		9.276086		-47.316281		-1.149660		2.604791		20.138524		1.797456		-4.814293		132.254111		-12.900722		41.745357		51.987286		73.484778		-30.406698		-3.060650		25.939678		127.607404		-3.363369		24.401151		58.530040		108.674755		-27.268753		10.431654		63.417632		
